<?xml version="1.0" standalone="no"?>
<!DOCTYPE svg PUBLIC "-//W3C//DTD SVG 20010904//EN"
 "http://www.w3.org/TR/2001/REC-SVG-20010904/DTD/svg10.dtd">
<svg version="1.0" xmlns="http://www.w3.org/2000/svg"
 width="225.000000pt" height="225.000000pt" viewBox="0 0 225.000000 225.000000"
 preserveAspectRatio="xMidYMid meet">

<g transform="translate(0.000000,225.000000) scale(0.100000,-0.100000)"
fill="#000000" stroke="none">
<path d="M703 1640 c-24 -18 -51 -50 -64 -76 -76 -157 90 -527 348 -775 223
-215 440 -292 546 -194 19 18 27 36 27 58 0 63 -65 154 -149 208 -55 35 -65
36 -103 4 -53 -45 -61 -40 -141 85 -52 82 -148 198 -226 274 -71 67 -77 94
-31 128 23 17 30 30 30 56 0 65 -87 202 -154 243 -17 10 -33 19 -37 19 -3 0
-24 -14 -46 -30z"/>
</g>
</svg>
