<svg aria-hidden="true" style="position: absolute; width: 0; height: 0; overflow: hidden;" version="1.1" xmlns="http://www.w3.org/2000/svg" xmlns:xlink="http://www.w3.org/1999/xlink">
<defs>
<symbol id="icon-star" viewBox="0 0 32 32">
<path fill="#ecd979" style="fill: var(--color1, #ecd979)" d="M15.434 0.333c0.251-0.437 0.881-0.437 1.133 0l1.84 3.203c0.19 0.33 0.621 0.429 0.935 0.214l3.081-2.107c0.418-0.286 0.987-0.008 1.020 0.496l0.239 3.642c0.025 0.383 0.374 0.662 0.754 0.602l3.69-0.584c0.504-0.080 0.9 0.423 0.706 0.894l-1.386 3.36c-0.148 0.359 0.048 0.767 0.421 0.876l3.555 1.036c0.493 0.144 0.635 0.773 0.252 1.115l-2.731 2.433c-0.291 0.26-0.291 0.715 0 0.975l2.731 2.433c0.383 0.341 0.241 0.971-0.252 1.115l-3.555 1.036c-0.373 0.109-0.569 0.517-0.421 0.876l1.386 3.36c0.194 0.471-0.202 0.974-0.706 0.894l-3.69-0.584c-0.38-0.060-0.729 0.219-0.754 0.602l-0.239 3.642c-0.033 0.505-0.603 0.782-1.020 0.496l-3.081-2.107c-0.314-0.215-0.745-0.116-0.935 0.214l-1.84 3.203c-0.251 0.437-0.881 0.437-1.133 0l-1.84-3.203c-0.19-0.33-0.621-0.429-0.935-0.214l-3.081 2.107c-0.418 0.286-0.987 0.009-1.020-0.496l-0.239-3.642c-0.025-0.383-0.374-0.662-0.754-0.602l-3.69 0.584c-0.504 0.080-0.9-0.423-0.706-0.894l1.386-3.36c0.148-0.359-0.048-0.767-0.421-0.876l-3.555-1.036c-0.493-0.144-0.635-0.773-0.252-1.115l2.731-2.433c0.291-0.26 0.291-0.715 0-0.975l-2.731-2.433c-0.383-0.341-0.241-0.971 0.252-1.115l3.555-1.036c0.373-0.109 0.569-0.517 0.421-0.876l-1.386-3.36c-0.194-0.471 0.202-0.974 0.706-0.894l3.69 0.584c0.38 0.060 0.729-0.219 0.754-0.602l0.239-3.642c0.033-0.505 0.603-0.782 1.020-0.496l3.081 2.107c0.314 0.215 0.745 0.116 0.935-0.214l1.84-3.203z"></path>
</symbol>
<symbol id="icon-arrow" viewBox="0 0 32 32">
<path fill="#ecd979" style="fill: var(--color1, #ecd979)" d="M26.777 17.957c-0.174-1.303-0.286-2.466-0.337-3.49-0.022-1.040 0.017-1.94 0.119-2.7l-25.293 14.603-1.197-2.073 25.293-14.603c-0.728-0.325-1.537-0.758-2.426-1.297-0.861-0.556-1.803-1.218-2.825-1.988l1.519-0.877c3.209 1.349 6.143 2.024 8.804 2.023l0.513 0.888c-1.35 2.271-2.233 5.149-2.65 8.636l-1.519 0.877z"></path>
</symbol>
<symbol id="icon-facebook" viewBox="0 0 32 32">
<path fill="#fcf9f9" style="fill: var(--color2, #fcf9f9)" opacity="0.8" d="M19.52 4.64c0.24 0 0.48 0 0.96 0v3.6c-0.24 0-0.72 0-1.2 0s-0.96 0-1.2 0.24c-0.24 0.24-0.24 0.48-0.24 1.040 0 0.48 0 0.8 0 1.28h2.64v3.040h-2.64v13.2h-4.080v-13.28h-2.16v-3.040h2.16v-1.040c0-1.76 0.24-3.040 0.72-3.6 0.72-1.040 2.16-1.52 4.32-1.52 0.24 0.080 0.48 0.080 0.72 0.080z"></path>
</symbol>
<symbol id="icon-instagram" viewBox="0 0 32 32">
<path fill="#fcf9f9" style="fill: var(--color2, #fcf9f9)" opacity="0.8" d="M28.717 10.756c-0.016-1.074-0.215-2.14-0.596-3.145-0.667-1.716-2.024-3.073-3.743-3.737-0.994-0.373-2.044-0.573-3.108-0.596-1.368-0.061-1.801-0.078-5.273-0.078s-3.917 0-5.274 0.078c-1.062 0.023-2.112 0.223-3.106 0.596-1.719 0.664-3.078 2.021-3.743 3.737-0.374 0.992-0.576 2.041-0.596 3.101-0.061 1.367-0.080 1.8-0.080 5.265s0 3.909 0.080 5.265c0.021 1.062 0.222 2.109 0.596 3.104 0.667 1.714 2.024 3.071 3.744 3.735 0.989 0.386 2.040 0.605 3.106 0.639 1.369 0.061 1.803 0.080 5.274 0.080s3.916 0 5.274-0.080c1.062-0.021 2.113-0.221 3.108-0.595 1.719-0.666 3.076-2.022 3.743-3.737 0.374-0.994 0.574-2.041 0.596-3.104 0.061-1.365 0.080-1.798 0.080-5.265-0.003-3.466-0.003-3.906-0.082-5.264zM15.99 22.531c-3.631 0-6.572-2.936-6.572-6.561s2.941-6.561 6.572-6.561c3.628 0 6.572 2.936 6.572 6.561s-2.944 6.561-6.572 6.561zM22.823 10.696c-0.849 0-1.532-0.684-1.532-1.53s0.684-1.53 1.532-1.53c0.846 0 1.531 0.684 1.531 1.53s-0.685 1.53-1.531 1.53z"></path>
<path fill="#fcf9f9" style="fill: var(--color2, #fcf9f9)" opacity="0.8" d="M15.992 19.976c2.211 0 4.004-1.793 4.004-4.004s-1.793-4.004-4.004-4.004c-2.211 0-4.004 1.793-4.004 4.004s1.793 4.004 4.004 4.004z"></path>
</symbol>
<symbol id="icon-youtube" viewBox="0 0 32 32">
<path fill="#fcf9f9" style="fill: var(--color2, #fcf9f9)" opacity="0.8" d="M24.24 6c-1.36-0.080-4.16-0.16-8.4-0.16h-0.56c-4.080 0-6.8 0.080-8.16 0.24-1.84 0.16-3.12 0.64-3.84 1.28-0.64 0.56-1.12 1.6-1.28 2.96-0.080 0.88-0.16 2.72-0.16 5.52v0.4c0 2.64 0.080 4.48 0.24 5.36 0.24 1.28 0.64 2.24 1.44 2.8 0.8 0.64 2.16 1.040 4.080 1.2 1.36 0.080 4.16 0.16 8.4 0.16h0.56c4.080 0 6.8-0.080 8.16-0.24 1.84-0.16 3.12-0.64 3.84-1.28 0.64-0.56 1.12-1.6 1.28-2.96 0.080-0.88 0.16-2.72 0.16-5.52v-0.4c0-2.64-0.080-4.48-0.24-5.36-0.24-1.28-0.64-2.24-1.44-2.8-0.8-0.64-2.16-1.040-4.080-1.2zM21.12 15.84l-8.8 5.28v-10.56l8.8 5.28z"></path>
</symbol>
<symbol id="icon-burger" viewBox="0 0 47 32">
<path fill="none" stroke="#ecd979" style="stroke: var(--color2, #ecd979)" stroke-linejoin="miter" stroke-linecap="round" stroke-miterlimit="4" stroke-width="3.2" d="M8.742 5.188h36.591"></path>
<path fill="none" stroke="#ecd979" style="stroke: var(--color2, #ecd979)" stroke-linejoin="miter" stroke-linecap="round" stroke-miterlimit="4" stroke-width="3.2" d="M8.742 24.582h36.591"></path>
<path fill="none" stroke="#ecd979" style="stroke: var(--color2, #ecd979)" stroke-linejoin="miter" stroke-linecap="round" stroke-miterlimit="4" stroke-width="3.2" d="M19.965 14.885h25.368"></path>
</symbol>
<symbol>
  <svg id="viber"
    xmlns="http://www.w3.org/2000/svg"
    viewBox="0 0 24 24"
    width="24"
    height="24"
    fill="currentColor"
  >
    <path d="M12 0c-6.627 0-12 5.373-12 12 0 2.236.598 4.312 1.629 6.086l-1.549 4.932a1 1 0 001.283 1.283l4.932-1.549a11.978 11.978 0 006.086 1.629c6.627 0 12-5.373 12-12s-5.373-12-12-12zm-2.431 19.549l-1.681-.674c-.276-.113-.423-.422-.37-.725.122-.803.267-1.658.435-2.488.047-.272.175-.537.373-.746l1.88-1.88c.274-.274.659-.434 1.051-.434.049 0 .097.002.146.005.601.035 1.152.17 1.682.415.262.123.536.314.764.541.133.139.263.288.379.454.496.792.912 1.671 1.238 2.578.065.197.015.42-.138.573l-1.88 1.88c-.279.279-.573.377-.746.373-.83-.168-1.687-.313-2.493-.435-.314-.054-.613-.221-.725-.37zm7.697-1.628c-.182.183-.438.263-.675.208-.918-.188-1.832-.53-2.743-1.037-.233-.135-.373-.365-.373-.646 0-.398.33-.728.728-.728.131 0 .261.042.367.118.451.319.934.573 1.437.742.209.072.417-.011.556-.179.136-.163.186-.397.138-.609-.161-.669-.357-1.326-.592-1.975-.064-.182-.113-.357-.158-.546-.042-.177-.052-.362-.028-.543.068-.693.384-1.336.896-1.788.215-.212.469-.39.738-.548.198-.107.417-.159.636-.142.275.018.551.124.751.288.357.281.708.586 1.038.898.234.209.464.43.69.654.328.348.692.704 1.039 1.043.269.25.517.503.751.78.253.287.46.599.617.928.041.104.071.215.092.327.085.401.124.815.12 1.223-.003.395-.171.786-.485 1.095l-1.812 1.81z" />
  </svg>
  </symbol>
<symbol id="icon-close" viewBox="0 0 32 32">
<path stroke-linejoin="round" stroke-linecap="round" stroke-miterlimit="4" stroke-width="1.7778" d="M24 8l-16 16"></path>
<path stroke-linejoin="round" stroke-linecap="round" stroke-miterlimit="4" stroke-width="1.7778" d="M8 8l16 16"></path>
</symbol>
</defs>
</svg>
