<svg aria-hidden="true" style="position: absolute; width: 0; height: 0; overflow: hidden;" version="1.1" xmlns="http://www.w3.org/2000/svg" xmlns:xlink="http://www.w3.org/1999/xlink">
  <defs>
    <symbol id="icon-arrow-down" viewBox="0 0 32 32">
      <path fill="none" stroke="#fafafa" style="stroke: var(--color1, #fafafa)" stroke-linejoin="miter" stroke-linecap="butt" stroke-miterlimit="4" stroke-width="3.2" d="M24 12l-8 8-8-8"></path>
    </symbol>
    <symbol id="icon-arrow-up" viewBox="0 0 32 32">
      <path fill="none" stroke="#fafafa" style="stroke: var(--color1, #fafafa)" stroke-linejoin="miter" stroke-linecap="butt" stroke-miterlimit="4" stroke-width="3.2" d="M24 20l-8-8-8 8"></path>
    </symbol>
     <svg xmlns="http://www.w3.org/2000/svg" style="display: none;">
  <symbol id="icon-tell" viewBox="0 0 24 24" fill="none" stroke="#48C9B0" stroke-width="2" stroke-linecap="round" stroke-linejoin="round">
    <path d="M20.29,13.12a1,1,0,0,0-1.2-.08L17,14.31a1,1,0,0,1-1.26-.15,12.22,12.22,0,0,1-4.16-4.16,1,1,0,0,1-.15-1.26l1.27-2.09a1,1,0,0,0-.08-1.2L11,3.71a1,1,0,0,0-1.38-.08A3.78,3.78,0,0,0,7.5,4.83a4.53,4.53,0,0,0-.86,4.34,18.51,18.51,0,0,0,6.75,9.75,4.53,4.53,0,0,0,4.34-.86,3.78,3.78,0,0,0,1.2-2.12A1,1,0,0,0,20.29,13.12Z"></path>
  </symbol>
  <symbol id="icon-telegram" viewBox="0 0 48 48">
    <circle cx="24" cy="24" r="24" fill="#0088cc"/>
    <path fill="#ffffff" d="M37.8,10.4l-29,11.5c-1.1,0.4-1.2,1.3-0.2,1.7l6.9,2.2l2.6,8.2c0.3,0.9,1.4,1.1,2,0.6l3.9-3.1l6.8,5.2c1.3,1,2.3,0.5,2.7-1.1 l4.9-23.6C39.3,10.8,38.6,10,37.8,10.4z"></path>
  </symbol>
  </defs>
</svg>
